<?xml version="1.0" standalone="no"?><!DOCTYPE svg PUBLIC "-//W3C//DTD SVG 1.1//EN" "http://www.w3.org/Graphics/SVG/1.1/DTD/svg11.dtd"><svg t="1577957140390" class="icon" viewBox="0 0 1024 1024" version="1.1" xmlns="http://www.w3.org/2000/svg" p-id="654" xmlns:xlink="http://www.w3.org/1999/xlink" width="200" height="200"><defs><style type="text/css"></style></defs><path d="M512 56.888889C261.688889 56.888889 56.888889 261.688889 56.888889 512s204.8 455.111111 455.111111 455.111111 455.111111-204.8 455.111111-455.111111-204.8-455.111111-455.111111-455.111111z m0 853.333333c-221.866667 0-398.222222-176.355556-398.222222-398.222222s176.355556-398.222222 398.222222-398.222222 398.222222 176.355556 398.222222 398.222222-176.355556 398.222222-398.222222 398.222222z" fill="#333333" p-id="655"></path><path d="M841.955556 381.155556h-210.488889c-17.066667 0-28.444444 11.377778-28.444445 28.444444v136.533333H466.488889c-17.066667 0-28.444444 11.377778-28.444445 28.444445v136.533333H329.955556c-17.066667 0-28.444444 11.377778-28.444445 28.444445v73.955555c0 17.066667 11.377778 28.444444 28.444445 28.444445s28.444444-11.377778 28.444444-28.444445v-45.511111h108.088889c17.066667 0 28.444444-11.377778 28.444444-28.444444v-136.533334h136.533334c17.066667 0 28.444444-11.377778 28.444444-28.444444V438.044444h182.044445c17.066667 0 28.444444-11.377778 28.444444-28.444444s-11.377778-28.444444-28.444444-28.444444zM341.333333 540.444444V455.111111h28.444445c17.066667 0 28.444444-11.377778 28.444444-28.444444S386.844444 398.222222 369.777778 398.222222H341.333333V341.333333h85.333334c17.066667 0 28.444444-11.377778 28.444444-28.444444S443.733333 284.444444 426.666667 284.444444h-113.777778c-17.066667 0-28.444444 11.377778-28.444445 28.444445v227.555555c0 17.066667 11.377778 28.444444 28.444445 28.444445s28.444444-11.377778 28.444444-28.444445z" fill="#333333" p-id="656"></path></svg>